# xmcd
#
# Track frame offsets:
#	150
#	701
#	14627
#	27246
#	42871
#	59622
#	75570
#	88544
#	104235
#	126568
#	137871
#	155335
#	173056
#	192736
#
# Disc length: 2806 seconds
#
# Revision: 0
# Processed by: cddbd v1.5.1PL0 Copyright (c) Steve Scherf et al.
# Submitted via: dBpowerAMP V4.0
#
DISCID=c40af40e
DTITLE=Toby Keith - New And #1's
DYEAR=1900
DGENRE=
TTITLE0=Tobys Intro 
TTITLE1=I Wanna Talk About Me
TTITLE2=Im Just Talkin About Tonight
TTITLE3=How Do You Like Me Now !
TTITLE4=You Shouldnt Kiss Me Like That
TTITLE5=Shouldve Been A Cowboy
TTITLE6=A Little Less Talk And A Lot More Action
TTITLE7=Wish I Didnt Know Now
TTITLE8=Whos That Man
TTITLE9=You Aint Much Fun
TTITLE10=Does That Blue Moon Ever Shine On You
TTITLE11=Me Too
TTITLE12=We Were In Love
TTITLE13=Dream Walkin
EXTD=
EXTT0=
EXTT1=
EXTT2=
EXTT3=
EXTT4=
EXTT5=
EXTT6=
EXTT7=
EXTT8=
EXTT9=
EXTT10=
EXTT11=
EXTT12=
EXTT13=
PLAYORDER=
